<?xml version="1.0" encoding="UTF-8"?>
<svg xmlns="http://www.w3.org/2000/svg" xmlns:xlink="http://www.w3.org/1999/xlink" width="854" height="480" viewBox="0 0 854 480">
<defs>
<g>
<g id="glyph-0-0">
<path d="M 5.304688 -2.175781 L 5.304688 -3.640625 L 3.761719 -3.640625 C 3.167969 -3.640625 2.726562 -3.511719 2.433594 -3.253906 C 2.144531 -3 2 -2.605469 2 -2.078125 C 2 -1.59375 2.144531 -1.214844 2.441406 -0.929688 C 2.738281 -0.648438 3.136719 -0.507812 3.640625 -0.507812 C 4.136719 -0.507812 4.539062 -0.660156 4.847656 -0.96875 C 5.152344 -1.277344 5.304688 -1.679688 5.304688 -2.175781 M 6.503906 -4.324219 L 6.503906 -0.691406 L 7.570312 -0.691406 L 7.570312 0 L 5.304688 0 L 5.304688 -0.75 C 5.042969 -0.425781 4.734375 -0.191406 4.386719 -0.0390625 C 4.039062 0.113281 3.636719 0.1875 3.171875 0.1875 C 2.402344 0.1875 1.792969 -0.015625 1.339844 -0.421875 C 0.890625 -0.832031 0.664062 -1.382812 0.664062 -2.078125 C 0.664062 -2.792969 0.921875 -3.347656 1.4375 -3.742188 C 1.957031 -4.136719 2.683594 -4.335938 3.625 -4.335938 L 5.304688 -4.335938 L 5.304688 -4.8125 C 5.304688 -5.335938 5.144531 -5.742188 4.828125 -6.03125 C 4.507812 -6.320312 4.058594 -6.464844 3.484375 -6.464844 C 3.003906 -6.464844 2.625 -6.355469 2.34375 -6.140625 C 2.0625 -5.921875 1.886719 -5.601562 1.816406 -5.175781 L 1.199219 -5.175781 L 1.199219 -6.574219 C 1.613281 -6.753906 2.019531 -6.886719 2.414062 -6.976562 C 2.804688 -7.066406 3.1875 -7.109375 3.5625 -7.109375 C 4.519531 -7.109375 5.25 -6.871094 5.75 -6.394531 C 6.253906 -5.921875 6.503906 -5.230469 6.503906 -4.324219 Z "/>
</g>
</g>
</defs>
<g fill="rgb(100%, 100%, 100%)" fill-opacity="1">
<use xlink:href="#glyph-0-0" x="30" y="32.375977"/>
</g>
</svg>
