<?xml version="1.0" encoding="UTF-8"?>
<svg xmlns="http://www.w3.org/2000/svg" xmlns:xlink="http://www.w3.org/1999/xlink" width="854" height="480" viewBox="0 0 854 480">
<defs>
<g>
<g id="glyph-0-0">
<path d="M 4.65625 -3.292969 L 4.65625 -8.464844 L 1.335938 -3.292969 L 4.65625 -3.292969 M 7.519531 0 L 3.09375 0 L 3.09375 -0.691406 L 4.65625 -0.691406 L 4.65625 -2.597656 L 0.410156 -2.597656 L 0.410156 -3.308594 L 4.667969 -9.894531 L 5.957031 -9.894531 L 5.957031 -3.292969 L 7.8125 -3.292969 L 7.8125 -2.597656 L 5.957031 -2.597656 L 5.957031 -0.691406 L 7.519531 -0.691406 Z "/>
</g>
<g id="glyph-0-1">
<path d="M 6.238281 -4.355469 C 5.945312 -4.03125 5.613281 -3.785156 5.234375 -3.625 C 4.855469 -3.464844 4.429688 -3.386719 3.957031 -3.386719 C 2.996094 -3.386719 2.234375 -3.675781 1.675781 -4.257812 C 1.117188 -4.839844 0.839844 -5.632812 0.839844 -6.640625 C 0.839844 -7.625 1.140625 -8.414062 1.746094 -9.007812 C 2.351562 -9.601562 3.160156 -9.894531 4.171875 -9.894531 C 5.269531 -9.894531 6.113281 -9.488281 6.703125 -8.667969 C 7.289062 -7.851562 7.585938 -6.683594 7.585938 -5.164062 C 7.585938 -3.460938 7.234375 -2.144531 6.535156 -1.210938 C 5.835938 -0.277344 4.855469 0.1875 3.585938 0.1875 C 3.246094 0.1875 2.882812 0.15625 2.507812 0.0898438 C 2.128906 0.0273438 1.742188 -0.0703125 1.347656 -0.203125 L 1.347656 -1.816406 L 2.078125 -1.816406 C 2.132812 -1.378906 2.300781 -1.042969 2.585938 -0.808594 C 2.867188 -0.574219 3.246094 -0.457031 3.71875 -0.457031 C 4.558594 -0.457031 5.1875 -0.773438 5.597656 -1.410156 C 6.011719 -2.046875 6.222656 -3.027344 6.238281 -4.355469 M 4.121094 -9.25 C 3.503906 -9.25 3.03125 -9.027344 2.703125 -8.578125 C 2.378906 -8.128906 2.214844 -7.484375 2.214844 -6.640625 C 2.214844 -5.796875 2.378906 -5.152344 2.703125 -4.699219 C 3.03125 -4.25 3.503906 -4.023438 4.121094 -4.023438 C 4.738281 -4.023438 5.210938 -4.242188 5.535156 -4.679688 C 5.863281 -5.113281 6.027344 -5.742188 6.027344 -6.5625 C 6.027344 -7.425781 5.863281 -8.089844 5.535156 -8.554688 C 5.203125 -9.019531 4.734375 -9.25 4.121094 -9.25 Z "/>
</g>
</g>
</defs>
<g fill="rgb(100%, 100%, 100%)" fill-opacity="1">
<use xlink:href="#glyph-0-0" x="30" y="32.375977"/>
<use xlink:href="#glyph-0-1" x="38" y="32.375977"/>
</g>
</svg>
