<?xml version="1.0" encoding="UTF-8"?>
<svg xmlns="http://www.w3.org/2000/svg" xmlns:xlink="http://www.w3.org/1999/xlink" width="854" height="480" viewBox="0 0 854 480">
<defs>
<g>
<g id="glyph-0-0">
<path d="M 1.296875 -9.070312 C 1.296875 -9.269531 1.367188 -9.441406 1.511719 -9.589844 C 1.660156 -9.738281 1.832031 -9.8125 2.039062 -9.8125 C 2.238281 -9.8125 2.410156 -9.738281 2.554688 -9.589844 C 2.699219 -9.441406 2.773438 -9.269531 2.773438 -9.070312 C 2.773438 -8.863281 2.703125 -8.691406 2.558594 -8.546875 C 2.414062 -8.40625 2.242188 -8.332031 2.039062 -8.332031 C 1.832031 -8.332031 1.660156 -8.40625 1.511719 -8.546875 C 1.367188 -8.691406 1.296875 -8.863281 1.296875 -9.070312 M 2.824219 -0.691406 L 3.957031 -0.691406 L 3.957031 0 L 0.480469 0 L 0.480469 -0.691406 L 1.628906 -0.691406 L 1.628906 -6.222656 L 0.480469 -6.222656 L 0.480469 -6.921875 L 2.824219 -6.921875 Z "/>
</g>
</g>
</defs>
<g fill="rgb(100%, 100%, 100%)" fill-opacity="1">
<use xlink:href="#glyph-0-0" x="30" y="32.375977"/>
</g>
</svg>
