<?xml version="1.0" encoding="UTF-8"?>
<svg xmlns="http://www.w3.org/2000/svg" xmlns:xlink="http://www.w3.org/1999/xlink" width="854" height="480" viewBox="0 0 854 480">
<defs>
<g>
<g id="glyph-0-0">
<path d="M 1.273438 0 L 1.273438 -0.34375 L 1.894531 -0.34375 L 1.894531 -4.472656 L 0.464844 -4.472656 L 0.464844 -3.714844 L 0.0664062 -3.714844 L 0.0664062 -4.859375 L 4.382812 -4.859375 L 4.382812 -3.714844 L 3.980469 -3.714844 L 3.980469 -4.472656 L 2.550781 -4.472656 L 2.550781 -0.34375 L 3.171875 -0.34375 L 3.171875 0 Z "/>
</g>
<g id="glyph-0-1">
<path d="M 2.003906 -0.226562 C 2.328125 -0.226562 2.570312 -0.355469 2.734375 -0.609375 C 2.898438 -0.863281 2.976562 -1.238281 2.976562 -1.730469 C 2.976562 -2.226562 2.898438 -2.601562 2.734375 -2.851562 C 2.570312 -3.105469 2.328125 -3.230469 2.003906 -3.230469 C 1.683594 -3.230469 1.441406 -3.105469 1.277344 -2.851562 C 1.113281 -2.601562 1.03125 -2.226562 1.03125 -1.730469 C 1.03125 -1.238281 1.113281 -0.863281 1.277344 -0.609375 C 1.445312 -0.355469 1.6875 -0.226562 2.003906 -0.226562 M 2.003906 0.09375 C 1.5 0.09375 1.097656 -0.0703125 0.789062 -0.40625 C 0.484375 -0.738281 0.332031 -1.179688 0.332031 -1.730469 C 0.332031 -2.28125 0.484375 -2.722656 0.789062 -3.054688 C 1.09375 -3.386719 1.5 -3.554688 2.003906 -3.554688 C 2.511719 -3.554688 2.917969 -3.386719 3.222656 -3.054688 C 3.527344 -2.722656 3.679688 -2.28125 3.679688 -1.730469 C 3.679688 -1.179688 3.527344 -0.738281 3.222656 -0.40625 C 2.917969 -0.0703125 2.511719 0.09375 2.003906 0.09375 Z "/>
</g>
<g id="glyph-0-2">
<path d="M 1.367188 -1.902344 L 1.367188 -1.558594 C 1.367188 -1.140625 1.445312 -0.824219 1.605469 -0.605469 C 1.765625 -0.390625 1.996094 -0.28125 2.300781 -0.28125 C 2.605469 -0.28125 2.839844 -0.402344 2.996094 -0.648438 C 3.152344 -0.894531 3.230469 -1.253906 3.230469 -1.730469 C 3.230469 -2.210938 3.152344 -2.574219 2.996094 -2.816406 C 2.839844 -3.058594 2.605469 -3.179688 2.300781 -3.179688 C 1.996094 -3.179688 1.765625 -3.070312 1.605469 -2.851562 C 1.445312 -2.632812 1.367188 -2.316406 1.367188 -1.902344 M 0.769531 -3.113281 L 0.191406 -3.113281 L 0.191406 -3.460938 L 1.367188 -3.460938 L 1.367188 -2.917969 C 1.484375 -3.136719 1.632812 -3.296875 1.816406 -3.398438 C 1.996094 -3.503906 2.21875 -3.554688 2.488281 -3.554688 C 2.914062 -3.554688 3.257812 -3.386719 3.527344 -3.050781 C 3.796875 -2.714844 3.933594 -2.273438 3.933594 -1.730469 C 3.933594 -1.1875 3.796875 -0.75 3.527344 -0.410156 C 3.257812 -0.0742188 2.914062 0.09375 2.488281 0.09375 C 2.21875 0.09375 1.996094 0.0429688 1.816406 -0.0585938 C 1.632812 -0.164062 1.484375 -0.324219 1.367188 -0.539062 L 1.367188 1.039062 L 1.933594 1.039062 L 1.933594 1.386719 L 0.191406 1.386719 L 0.191406 1.039062 L 0.769531 1.039062 Z "/>
</g>
</g>
</defs>
<g fill="rgb(100%, 100%, 100%)" fill-opacity="1">
<use xlink:href="#glyph-0-0" x="30" y="26.1875"/>
<use xlink:href="#glyph-0-1" x="34" y="26.1875"/>
<use xlink:href="#glyph-0-2" x="38" y="26.1875"/>
</g>
</svg>
