<?xml version="1.0" encoding="UTF-8"?>
<svg xmlns="http://www.w3.org/2000/svg" xmlns:xlink="http://www.w3.org/1999/xlink" width="854" height="480" viewBox="0 0 854 480">
<defs>
<g>
<g id="glyph-0-0">
<path d="M 3.351562 -4.859375 L 3.351562 -4.328125 L 1.125 -4.328125 L 1.125 -2.933594 C 1.238281 -3.011719 1.371094 -3.070312 1.523438 -3.109375 C 1.671875 -3.148438 1.839844 -3.167969 2.027344 -3.167969 C 2.554688 -3.167969 2.96875 -3.023438 3.269531 -2.730469 C 3.574219 -2.441406 3.726562 -2.042969 3.726562 -1.539062 C 3.726562 -1.023438 3.574219 -0.625 3.265625 -0.335938 C 2.960938 -0.0507812 2.527344 0.09375 1.972656 0.09375 C 1.75 0.09375 1.519531 0.0664062 1.285156 0.0117188 C 1.050781 -0.0429688 0.8125 -0.125 0.566406 -0.234375 L 0.566406 -1.179688 L 0.933594 -1.179688 C 0.953125 -0.871094 1.050781 -0.632812 1.230469 -0.472656 C 1.40625 -0.308594 1.652344 -0.226562 1.972656 -0.226562 C 2.316406 -0.226562 2.578125 -0.339844 2.761719 -0.566406 C 2.949219 -0.792969 3.039062 -1.117188 3.039062 -1.539062 C 3.039062 -1.960938 2.949219 -2.285156 2.765625 -2.507812 C 2.582031 -2.734375 2.316406 -2.84375 1.972656 -2.84375 C 1.777344 -2.84375 1.605469 -2.808594 1.457031 -2.742188 C 1.308594 -2.671875 1.175781 -2.5625 1.0625 -2.417969 L 0.78125 -2.417969 L 0.78125 -4.859375 Z "/>
</g>
<g id="glyph-0-1">
<path d="M 2.179688 -0.226562 C 2.488281 -0.226562 2.722656 -0.339844 2.886719 -0.566406 C 3.050781 -0.789062 3.132812 -1.113281 3.132812 -1.53125 C 3.132812 -1.953125 3.050781 -2.277344 2.886719 -2.5 C 2.722656 -2.726562 2.488281 -2.839844 2.179688 -2.839844 C 1.871094 -2.839844 1.632812 -2.730469 1.472656 -2.511719 C 1.308594 -2.296875 1.226562 -1.980469 1.226562 -1.570312 C 1.226562 -1.140625 1.308594 -0.808594 1.472656 -0.578125 C 1.640625 -0.34375 1.875 -0.226562 2.179688 -0.226562 M 1.121094 -2.675781 C 1.265625 -2.839844 1.433594 -2.960938 1.621094 -3.039062 C 1.808594 -3.121094 2.019531 -3.160156 2.253906 -3.160156 C 2.738281 -3.160156 3.117188 -3.015625 3.398438 -2.722656 C 3.679688 -2.433594 3.820312 -2.035156 3.820312 -1.53125 C 3.820312 -1.039062 3.671875 -0.644531 3.367188 -0.351562 C 3.066406 -0.0546875 2.660156 0.09375 2.15625 0.09375 C 1.605469 0.09375 1.183594 -0.109375 0.886719 -0.519531 C 0.59375 -0.929688 0.445312 -1.511719 0.445312 -2.273438 C 0.445312 -3.121094 0.621094 -3.78125 0.96875 -4.25 C 1.320312 -4.714844 1.8125 -4.949219 2.449219 -4.949219 C 2.621094 -4.949219 2.800781 -4.929688 2.988281 -4.898438 C 3.175781 -4.867188 3.371094 -4.816406 3.566406 -4.753906 L 3.566406 -3.953125 L 3.199219 -3.953125 C 3.171875 -4.171875 3.089844 -4.339844 2.949219 -4.453125 C 2.808594 -4.566406 2.617188 -4.625 2.378906 -4.625 C 1.957031 -4.625 1.644531 -4.464844 1.4375 -4.148438 C 1.234375 -3.828125 1.125 -3.335938 1.121094 -2.675781 Z "/>
</g>
</g>
</defs>
<g fill="rgb(100%, 100%, 100%)" fill-opacity="1">
<use xlink:href="#glyph-0-0" x="30" y="26.1875"/>
<use xlink:href="#glyph-0-1" x="34" y="26.1875"/>
</g>
</svg>
